<?xml version="1.0" standalone="no"?>
<!DOCTYPE svg PUBLIC "-//W3C//DTD SVG 20010904//EN"
 "http://www.w3.org/TR/2001/REC-SVG-20010904/DTD/svg10.dtd">
<svg version="1.0" xmlns="http://www.w3.org/2000/svg"
 width="646.000000pt" height="672.000000pt" viewBox="0 0 646.000000 672.000000"
 preserveAspectRatio="xMidYMid meet">

<g transform="translate(0.000000,672.000000) scale(0.100000,-0.100000)"
fill="#000000" stroke="none">
<path d="M0 6705 c0 -13 176 -15 1523 -16 1334 -1 1506 -3 1392 -15 -1034
-106 -1918 -670 -2450 -1562 -452 -759 -564 -1716 -299 -2569 130 -422 352
-822 639 -1153 542 -624 1286 -1007 2115 -1090 244 -24 620 -9 870 36 1217
219 2210 1138 2524 2335 180 688 128 1408 -149 2069 -221 528 -617 1020 -1091
1358 -453 322 -986 521 -1547 576 -114 12 73 14 1401 15 1354 1 1532 3 1532
16 0 13 -366 15 -3230 15 -2864 0 -3230 -2 -3230 -15z m3520 -164 c494 -76
941 -262 1337 -558 371 -277 665 -629 875 -1046 92 -184 212 -506 196 -523 -3
-3 -43 2 -89 11 -257 49 -636 69 -890 46 -283 -26 -604 -100 -874 -202 -526
-197 -942 -529 -1267 -1011 -32 -49 -61 -88 -64 -88 -2 0 -48 27 -100 61 -52
33 -114 68 -137 78 -53 23 -110 34 -102 21 3 -6 13 -10 21 -10 28 0 9 -25 -39
-50 -66 -35 -80 -24 -87 66 l-5 69 -68 3 c-84 4 -85 -9 -7 -53 30 -16 54 -34
54 -40 1 -5 -14 -11 -31 -13 -37 -4 -36 -2 -23 -37 8 -20 16 -26 30 -22 11 3
26 -3 37 -15 10 -11 45 -32 79 -48 52 -23 63 -33 77 -69 22 -54 22 -52 -13
-96 -39 -49 -32 -57 77 -91 81 -26 84 -28 78 -53 -3 -14 -20 -48 -37 -76 -17
-27 -41 -81 -54 -120 l-22 -70 -107 -25 -106 -26 -40 49 c-21 27 -39 53 -39
58 0 10 81 89 92 89 4 0 8 5 8 10 0 6 -8 10 -17 10 -10 0 -56 23 -102 50 -46
28 -87 47 -90 44 -3 -4 0 -9 7 -11 6 -3 12 -11 12 -20 0 -10 -10 -14 -37 -13
-21 1 -43 2 -49 1 -18 -2 -104 -82 -104 -97 0 -24 -39 -16 -93 20 -49 33 -54
34 -89 23 -21 -7 -38 -15 -38 -19 0 -5 -9 -8 -19 -8 -13 0 -21 -8 -23 -22 -2
-17 -10 -23 -28 -23 -18 0 -26 -6 -28 -22 -4 -27 -17 -30 -26 -7 -8 21 -25 8
-42 -33 -12 -28 -28 -41 -80 -65 -55 -26 -79 -31 -159 -34 -71 -2 -103 -8
-135 -24 -24 -12 -53 -20 -66 -17 -18 3 -24 0 -24 -13 0 -10 -10 -29 -21 -44
-21 -27 -21 -37 -3 -106 4 -14 4 -22 -1 -18 -4 4 -14 0 -22 -8 -13 -12 -11
-26 16 -107 37 -111 41 -187 11 -217 -11 -11 -20 -24 -20 -29 0 -5 38 -16 85
-26 72 -15 95 -16 154 -7 120 20 118 22 63 -60 -70 -103 -145 -240 -183 -330
-17 -43 -35 -78 -39 -78 -14 0 -225 225 -301 320 -730 916 -855 2170 -320
3200 l24 44 17 -44 c16 -43 16 -99 -2 -224 -5 -34 40 -42 92 -17 31 15 47 18
54 11 7 -7 11 -58 11 -123 0 -105 -2 -117 -36 -202 -52 -128 -51 -124 -30
-146 10 -11 24 -41 31 -67 7 -26 17 -52 22 -59 5 -6 6 -23 2 -37 -3 -14 0 -56
6 -95 12 -63 18 -74 63 -120 27 -28 54 -51 58 -51 14 0 11 28 -6 60 -12 23
-13 34 -4 54 9 18 9 36 0 70 -6 25 -11 54 -11 66 0 12 -17 38 -38 58 -45 45
-62 80 -62 132 0 23 -5 40 -11 40 -20 0 -1 61 35 114 19 28 37 61 41 74 5 18
13 22 33 20 21 -2 26 -8 25 -25 -2 -13 1 -23 6 -23 21 0 71 -63 71 -87 0 -28
25 -63 45 -63 7 0 19 -8 29 -19 13 -14 14 -24 6 -45 -14 -38 -13 -42 8 -23 19
17 74 39 144 57 67 18 88 41 88 98 0 26 5 64 9 86 8 34 6 44 -24 91 -38 58
-76 161 -68 182 3 7 30 31 61 53 50 36 61 40 115 40 l60 0 -6 -30 c-7 -35 10
-51 28 -26 13 17 41 23 128 29 28 2 53 10 59 18 6 8 11 10 14 3 4 -9 129 -3
138 7 10 10 -17 199 -34 236 -25 57 -74 81 -198 96 -75 10 -97 16 -100 29 -2
13 13 18 85 28 126 17 156 26 185 57 31 32 58 124 58 194 0 60 7 79 31 79 15
0 19 -7 19 -39 0 -54 26 -185 42 -211 7 -11 27 -30 43 -40 30 -18 135 -43 145
-33 3 2 -10 32 -29 65 l-33 60 24 22 c36 32 65 46 93 46 48 0 24 16 -48 34
-88 20 -119 39 -115 69 2 17 16 25 68 39 71 19 140 23 140 9 0 -5 -9 -13 -20
-16 -11 -3 -20 -14 -20 -24 0 -16 7 -17 49 -13 28 2 62 1 77 -2 24 -6 26 -11
21 -40 -5 -29 -2 -35 20 -45 19 -9 23 -15 15 -23 -9 -9 -9 -15 0 -25 8 -10 7
-18 -6 -31 -26 -30 -19 -42 22 -42 26 0 45 7 57 20 17 19 17 22 -9 91 -15 40
-23 75 -19 79 4 4 25 13 45 19 20 7 40 21 43 31 3 11 21 28 39 39 26 17 43 20
79 15 63 -9 99 15 159 106 l50 74 -7 86 c-6 75 -10 87 -32 104 -21 16 -29 17
-45 7 -20 -13 -26 -10 -76 37 -7 6 -18 12 -23 12 -20 0 -7 19 33 45 23 15 54
41 68 57 l27 30 97 -10 c64 -6 103 -15 115 -26 9 -9 28 -16 42 -16 19 0 21 2
9 10 -13 8 -13 13 2 37 20 32 52 34 74 5 11 -14 15 -15 23 -3 5 8 7 20 4 28
-9 24 14 14 25 -12 8 -18 9 -38 1 -72 -6 -27 -11 -60 -10 -75 1 -54 95 -228
113 -210 4 4 9 29 10 55 2 32 7 47 16 47 10 0 10 4 -2 21 -8 12 -12 27 -10 33
3 7 -11 29 -31 50 -19 21 -35 44 -35 52 0 8 0 17 0 21 -1 8 23 14 65 18 25 2
31 7 37 36 7 38 -1 53 -44 75 -33 17 -36 34 -8 41 25 7 17 19 -23 38 -18 8
-45 23 -62 33 -51 32 -211 82 -165 52 8 -5 10 -10 5 -10 -6 0 -21 7 -33 16
-12 8 -26 13 -30 10 -7 -4 -126 28 -264 71 -29 9 -21 26 10 19 15 -3 77 -9
137 -12 61 -3 123 -11 139 -17 22 -8 31 -8 33 0 3 7 12 10 21 7 9 -3 -4 7 -30
23 -27 15 -48 31 -48 35 0 12 91 16 340 13 185 -3 278 -9 380 -24z m2105
-2151 c181 -17 335 -43 335 -57 0 -3 11 -60 25 -127 41 -203 56 -364 56 -591
1 -475 -93 -875 -306 -1310 -140 -287 -325 -545 -555 -775 -479 -480 -1073
-767 -1760 -852 -137 -17 -514 -17 -655 1 -556 67 -1040 265 -1488 608 -58 45
-96 81 -93 89 165 431 490 778 886 946 224 96 356 122 615 122 220 1 302 -11
471 -65 383 -122 723 -445 907 -859 66 -147 53 -134 127 -131 215 8 532 128
785 296 255 169 416 347 535 590 92 188 138 360 147 560 21 431 -153 800 -478
1014 -51 34 -95 61 -98 61 -4 0 -15 23 -25 51 -22 64 -94 142 -161 177 -130
66 -334 25 -445 -89 -30 -31 -47 -39 -110 -52 -386 -80 -743 -364 -932 -742
-93 -185 -144 -378 -153 -580 -2 -60 -4 -111 -5 -112 0 0 -33 7 -72 18 -40 10
-134 26 -208 34 -74 9 -137 18 -140 21 -2 3 18 71 45 152 191 560 583 1006
1125 1282 348 176 777 299 1135 323 116 8 388 6 490 -3z m-792 -386 c56 -19
111 -76 128 -134 32 -105 -50 -260 -138 -260 -27 0 -40 -19 -22 -32 20 -13 92
-2 138 21 52 27 110 96 124 149 6 23 14 42 18 42 18 0 152 -106 204 -161 182
-195 275 -441 275 -728 0 -265 -69 -489 -221 -721 -181 -274 -465 -471 -779
-541 -141 -31 -140 -31 -194 56 -189 302 -495 587 -794 739 -56 28 -59 34 -81
160 -28 155 10 318 107 458 36 53 141 153 203 196 38 26 47 38 53 70 3 22 24
75 46 119 67 134 195 238 362 293 83 28 98 23 98 -30 0 -53 34 -153 70 -206
66 -95 219 -174 372 -194 72 -9 192 2 255 23 72 24 46 32 -99 32 -125 0 -150
3 -198 22 -161 66 -265 210 -265 368 0 93 24 154 81 204 77 67 166 86 257 55z"/>
<path d="M2680 5959 c0 -6 8 -28 19 -48 17 -33 33 -93 48 -178 8 -49 18 -40
31 29 10 55 10 65 -8 93 -11 17 -28 39 -38 48 -13 12 -17 26 -14 42 3 20 0 25
-17 25 -11 0 -21 -5 -21 -11z"/>
<path d="M2764 5645 c10 -25 10 -26 1 -52 -4 -12 -18 -24 -32 -28 -20 -5 -24
-10 -18 -28 12 -43 17 -142 7 -167 -13 -34 -80 -70 -92 -50 -7 11 -12 7 -22
-16 -17 -39 -25 -43 -62 -33 -45 13 -83 11 -116 -6 -41 -21 -39 -39 3 -31 41
7 65 -5 42 -24 -8 -7 -15 -17 -15 -22 0 -12 49 -1 68 15 11 8 9 13 -10 23 -22
13 -21 13 18 14 39 0 40 -1 36 -30 -5 -34 -1 -36 34 -14 19 13 22 20 13 30 -8
9 -8 14 -1 14 6 0 13 -4 16 -9 3 -4 22 -11 42 -14 30 -5 40 -2 55 16 18 21 18
21 19 2 0 -17 2 -17 10 -5 5 8 10 42 10 76 0 33 5 65 11 71 18 18 13 80 -10
109 -12 15 -21 33 -21 41 0 14 4 14 70 0 11 -3 70 23 70 30 0 15 -17 34 -28
31 -5 -2 -32 15 -58 37 -33 27 -45 33 -40 20z"/>
<path d="M2341 5221 c-11 -7 -7 -17 19 -50 40 -49 50 -51 50 -10 0 57 -31 84
-69 60z"/>
<path d="M1883 5170 c-41 -9 -78 -34 -98 -64 -17 -26 -45 -144 -45 -192 l0
-32 50 27 c30 16 54 37 61 54 6 15 30 42 53 60 22 17 43 36 45 40 1 4 14 19
27 32 24 24 34 52 14 40 -13 -8 -50 4 -50 16 0 5 10 14 23 19 19 8 18 9 -13 8
-19 0 -50 -3 -67 -8z"/>
<path d="M2295 4980 c-3 -5 -2 -10 4 -10 5 0 13 5 16 10 3 6 2 10 -4 10 -5 0
-13 -4 -16 -10z"/>
<path d="M2227 4924 c-4 -4 -7 -14 -7 -23 0 -11 3 -12 11 -4 6 6 10 16 7 23
-2 6 -7 8 -11 4z"/>
<path d="M1870 4871 c-12 -24 -13 -78 -1 -86 12 -7 71 65 71 87 0 26 -56 25
-70 -1z"/>
<path d="M1275 4746 c-20 -15 -15 -43 10 -53 21 -7 64 12 72 33 12 31 -47 46
-82 20z"/>
<path d="M1821 4557 c-6 -6 -11 -26 -11 -44 0 -20 -8 -41 -21 -54 -28 -28 -23
-73 9 -77 19 -3 23 -8 18 -27 -4 -15 -1 -25 9 -29 12 -4 15 3 15 35 0 25 9 54
25 78 35 56 40 84 18 102 -26 23 -49 29 -62 16z"/>
<path d="M1790 4281 c0 -6 5 -13 10 -16 6 -3 10 1 10 9 0 9 -4 16 -10 16 -5 0
-10 -4 -10 -9z"/>
<path d="M360 4202 c0 -12 19 -26 26 -19 2 2 -2 10 -11 17 -9 8 -15 8 -15 2z"/>
<path d="M1980 4176 c-5 -13 -15 -27 -22 -30 -7 -3 -2 -3 12 0 30 8 26 4 34
32 10 30 -12 29 -24 -2z"/>
<path d="M1850 4175 c-10 -12 -10 -15 3 -15 19 0 31 16 18 24 -5 3 -14 -1 -21
-9z"/>
<path d="M405 4124 c9 -22 32 -68 52 -104 65 -116 73 -134 94 -230 25 -116 55
-183 127 -280 31 -41 57 -76 58 -78 1 -2 11 1 22 7 13 7 22 7 30 -1 7 -7 14 2
21 33 27 105 26 104 50 101 21 -2 22 1 17 25 -8 31 -34 56 -48 47 -5 -3 -2
-14 7 -24 9 -10 12 -20 8 -23 -5 -3 -31 22 -57 55 -39 48 -52 75 -62 124 -10
45 -26 81 -56 123 -24 33 -63 90 -88 126 -45 65 -110 117 -165 131 l-26 6 16
-38z"/>
<path d="M382 3999 c2 -7 10 -15 17 -17 8 -3 12 1 9 9 -2 7 -10 15 -17 17 -8
3 -12 -1 -9 -9z"/>
<path d="M430 3902 c0 -11 7 -23 16 -26 11 -4 15 0 12 16 -4 28 -28 36 -28 10z"/>
<path d="M910 3899 c0 -5 5 -7 10 -4 6 3 10 8 10 11 0 2 -4 4 -10 4 -5 0 -10
-5 -10 -11z"/>
<path d="M1333 3869 c-27 -17 -52 -64 -40 -75 6 -6 37 7 37 16 0 4 11 24 25
44 28 41 23 44 -22 15z"/>
<path d="M1210 3797 l-35 -22 34 -3 c33 -3 51 9 51 36 0 17 -10 15 -50 -11z"/>
<path d="M480 3758 c0 -7 5 -20 10 -28 8 -12 10 -11 10 7 0 12 -4 25 -10 28
-5 3 -10 0 -10 -7z"/>
<path d="M1050 3646 c0 -28 27 -39 65 -25 30 11 37 11 50 -2 25 -25 7 -55 -43
-75 -36 -14 -42 -19 -26 -22 12 -2 37 3 56 11 28 12 36 12 46 1 6 -7 12 -19
12 -25 0 -7 19 -29 42 -50 42 -38 52 -40 106 -23 22 6 13 38 -22 75 -18 19
-43 54 -55 76 -20 40 -23 42 -78 48 -32 3 -72 10 -89 15 -42 14 -64 12 -64 -4z"/>
<path d="M1300 3605 c0 -10 47 -80 62 -93 12 -10 17 -8 26 12 10 22 7 28 -24
55 -31 27 -64 41 -64 26z"/>
<path d="M2012 3601 c2 -7 7 -12 11 -12 12 1 9 15 -3 20 -7 2 -11 -2 -8 -8z"/>
<path d="M2130 3454 c0 -14 3 -14 15 -4 8 7 15 14 15 16 0 2 -7 4 -15 4 -8 0
-15 -7 -15 -16z"/>
<path d="M796 3392 c-15 -18 -15 -19 9 -30 15 -7 25 -20 25 -33 0 -12 8 -23
20 -26 11 -3 20 -9 20 -13 0 -4 44 -18 98 -29 123 -28 204 -51 217 -62 5 -5
20 -9 35 -9 19 1 15 5 -20 17 -56 19 -70 30 -70 54 0 11 -6 19 -14 19 -7 0
-25 9 -39 20 -16 13 -28 16 -32 10 -16 -25 -88 2 -176 66 -26 19 -49 34 -51
34 -3 0 -12 -8 -22 -18z"/>
<path d="M1640 3390 c0 -11 7 -20 15 -20 17 0 18 2 9 24 -9 23 -24 20 -24 -4z"/>
<path d="M2400 3365 c7 -9 15 -13 17 -11 7 7 -7 26 -19 26 -6 0 -6 -6 2 -15z"/>
<path d="M1642 3320 c0 -14 2 -19 5 -12 2 6 2 18 0 25 -3 6 -5 1 -5 -13z"/>
<path d="M1895 3330 c3 -5 8 -10 11 -10 2 0 4 5 4 10 0 6 -5 10 -11 10 -5 0
-7 -4 -4 -10z"/>
<path d="M1990 3331 c8 -5 31 -11 50 -15 l35 -6 -30 15 c-33 16 -82 21 -55 6z"/>
<path d="M1354 3135 c-17 -13 -14 -14 41 -14 57 0 59 0 35 14 -32 18 -52 19
-76 0z"/>
<path d="M2260 3109 c-7 -11 -10 -23 -7 -25 2 -2 9 7 15 21 14 30 7 33 -8 4z"/>
<path d="M1468 3050 c42 -26 60 -26 37 0 -10 11 -30 20 -44 20 -26 0 -26 0 7
-20z"/>
<path d="M1742 3039 c-61 -35 -64 -47 -6 -25 22 8 58 20 82 26 23 6 40 15 37
20 -12 19 -60 10 -113 -21z"/>
<path d="M2090 3055 c-8 -9 -8 -15 -2 -15 12 0 26 19 19 26 -2 2 -10 -2 -17
-11z"/>
<path d="M3875 3162 c15 -118 104 -201 230 -217 61 -7 99 10 103 46 4 37 -18
50 -102 60 -108 12 -163 45 -224 135 -11 16 -12 13 -7 -24z"/>
<path d="M4650 2712 c-36 -29 -21 -81 43 -147 62 -64 107 -80 222 -80 67 0 89
4 130 25 53 28 76 58 34 46 -42 -12 -136 -19 -172 -12 -52 10 -119 59 -152
112 -51 80 -65 88 -105 56z"/>
<path d="M4010 2521 c-51 -50 -51 -112 -1 -119 50 -8 111 69 97 122 -9 37 -58
36 -96 -3z"/>
</g>
</svg>
